<svg width="227" height="115" viewBox="0 0 227 115" fill="none" xmlns="http://www.w3.org/2000/svg">
<g filter="url(#filter0_d_2_6)">
<mask id="path-1-outside-1_2_6" maskUnits="userSpaceOnUse" x="3" y="-1" width="222" height="109" fill="black">
<rect fill="white" x="3" y="-1" width="222" height="109"/>
<path d="M27.6875 88.9375V21.125L31.625 17.25H23.5625C18.3958 17.25 15.4583 18.6667 14.75 21.5H11.9375L4.625 11C5.66667 9.375 7 7.9375 8.625 6.6875C10.2083 5.39583 11.7708 4.75 13.3125 4.75H47.125C52.2917 4.75 55.2292 3.33333 55.9375 0.5H58.75L66.0625 11C65.0208 12.625 63.6875 14.0833 62.0625 15.375C60.4792 16.625 58.9167 17.25 57.375 17.25H43V82.3125C43 85.4375 43.3333 87.6875 44 89.0625C44.7083 90.4375 46.125 91.125 48.25 91.125V95.0625L22.0625 106.125L20 102C21.875 102 23.6667 100.896 25.375 98.6875C26.9167 96.6042 27.6875 93.3542 27.6875 88.9375ZM82.8125 15.875C81.9792 15.875 81.2083 16.2917 80.5 17.125V50.9375H98.5625V54L92.125 57.1875H80.5V70C80.5 79.4583 81.4375 85 83.3125 86.625C86.1042 89.0417 89.1667 90.4167 92.5 90.75C95.8333 91.0833 99.4167 91.25 103.25 91.25V94.9375C102.875 94.9375 99.7292 96.1042 93.8125 98.4375C87.8958 100.812 84.3125 102 83.0625 102C81.7292 102 80.0625 101.438 78.0625 100.312C76.0625 99.1875 74.0625 97.7083 72.0625 95.875C70.1042 94 68.4583 91.9167 67.125 89.625C65.7917 87.2917 65.125 84.9375 65.125 82.5625V15.1875C65.125 14.9375 66.0833 14.3958 68 13.5625C69.9583 12.6875 72.3958 11.6875 75.3125 10.5625C78.2708 9.4375 81.2708 8.33333 84.3125 7.25C87.3542 6.125 90.0208 5.20833 92.3125 4.5C94.6042 3.79167 96.0417 3.4375 96.625 3.4375C97 3.4375 97.4167 4.125 97.875 5.5C98.375 6.875 98.875 8.5625 99.375 10.5625C99.875 12.5208 100.354 14.375 100.812 16.125C101.688 19.625 102.604 22.2083 103.562 23.875C104.562 25.5417 106.438 26.375 109.188 26.375V28.9375C107.271 29.7292 104.083 31.2292 99.625 33.4375C95.0833 35.6458 92.6667 36.75 92.375 36.75C91.125 36.75 89.5208 33.2708 87.5625 26.3125C85.5625 19.3542 83.9792 15.875 82.8125 15.875ZM113.312 13.9375V11.25L126.625 3.4375H131.625L145.562 44.9375L148.375 43.625V22C148.375 19.5417 147.938 17.6042 147.062 16.1875C146.229 14.7708 145.396 13.9375 144.562 13.6875L143.125 13.4375V10.625L155.438 3.3125C155.896 3.3125 156.729 3.77083 157.938 4.6875C159.188 5.60417 160.354 6.70833 161.438 8C162.562 9.25 163.125 10.4583 163.125 11.625V43.125C163.125 44.5833 157.917 47.1875 147.5 50.9375L160.062 88.6875C160.479 89.8958 161.292 90.6458 162.5 90.9375C163.75 91.2292 165.625 91.375 168.125 91.375V94.1875L154.125 102H148.5L133.688 57.1875L131 58.5V83.3125C131 85.7708 131.417 87.7083 132.25 89.125C133.125 90.5417 133.979 91.3333 134.812 91.5L136.25 91.875V94.6875L123.938 102C123.521 102 122.688 101.542 121.438 100.625C120.188 99.7083 119 98.6042 117.875 97.3125C116.792 96.0208 116.25 94.8125 116.25 93.6875V59C116.25 58.2917 118 57.1042 121.5 55.4375C123.25 54.6042 124.958 53.8333 126.625 53.125C128.333 52.4167 130 51.7708 131.625 51.1875L120.625 18.0625C119.958 16.1042 119 14.9375 117.75 14.5625C116.542 14.1458 115.062 13.9375 113.312 13.9375ZM184.562 88.9375V21.125L188.5 17.25H180.438C175.271 17.25 172.333 18.6667 171.625 21.5H168.812L161.5 11C162.542 9.375 163.875 7.9375 165.5 6.6875C167.083 5.39583 168.646 4.75 170.188 4.75H204C209.167 4.75 212.104 3.33333 212.812 0.5H215.625L222.938 11C221.896 12.625 220.562 14.0833 218.938 15.375C217.354 16.625 215.792 17.25 214.25 17.25H199.875V82.3125C199.875 85.4375 200.208 87.6875 200.875 89.0625C201.583 90.4375 203 91.125 205.125 91.125V95.0625L178.938 106.125L176.875 102C178.75 102 180.542 100.896 182.25 98.6875C183.792 96.6042 184.562 93.3542 184.562 88.9375Z"/>
</mask>
<path d="M27.6875 21.125L26.9861 20.4123L26.6875 20.7061V21.125H27.6875ZM31.625 17.25L32.3264 17.9627L34.0668 16.25H31.625V17.25ZM14.75 21.5V22.5H15.5308L15.7201 21.7425L14.75 21.5ZM11.9375 21.5L11.1169 22.0715L11.4153 22.5H11.9375V21.5ZM4.625 11L3.78312 10.4603L3.42242 11.023L3.80439 11.5715L4.625 11ZM8.625 6.6875L9.23471 7.48012L9.24605 7.4714L9.25713 7.46237L8.625 6.6875ZM55.9375 0.5V-0.5H55.1567L54.9674 0.257464L55.9375 0.5ZM58.75 0.5L59.5706 -0.0714938L59.2722 -0.5H58.75V0.5ZM66.0625 11L66.9044 11.5397L67.2651 10.977L66.8831 10.4285L66.0625 11ZM62.0625 15.375L62.6821 16.1599L62.6847 16.1578L62.0625 15.375ZM43 17.25V16.25H42V17.25H43ZM44 89.0625L43.1002 89.4988L43.1055 89.5097L43.111 89.5205L44 89.0625ZM48.25 91.125H49.25V90.125H48.25V91.125ZM48.25 95.0625L48.6391 95.9837L49.25 95.7256V95.0625H48.25ZM22.0625 106.125L21.1681 106.572L21.5876 107.411L22.4516 107.046L22.0625 106.125ZM20 102V101H18.382L19.1056 102.447L20 102ZM25.375 98.6875L26.166 99.2994L26.1725 99.2909L26.1788 99.2823L25.375 98.6875ZM28.6875 88.9375V21.125H26.6875V88.9375H28.6875ZM28.3889 21.8377L32.3264 17.9627L30.9236 16.5373L26.9861 20.4123L28.3889 21.8377ZM31.625 16.25H23.5625V18.25H31.625V16.25ZM23.5625 16.25C20.9073 16.25 18.7106 16.6109 17.05 17.4118C15.349 18.2321 14.215 19.5169 13.7799 21.2575L15.7201 21.7425C15.9933 20.6498 16.6823 19.8095 17.9188 19.2132C19.1956 18.5974 21.051 18.25 23.5625 18.25V16.25ZM14.75 20.5H11.9375V22.5H14.75V20.5ZM12.7581 20.9285L5.44561 10.4285L3.80439 11.5715L11.1169 22.0715L12.7581 20.9285ZM5.46688 11.5397C6.44254 10.0176 7.69539 8.66422 9.23471 7.48012L8.01529 5.89488C6.30461 7.21078 4.89079 8.73237 3.78312 10.4603L5.46688 11.5397ZM9.25713 7.46237C10.7204 6.26866 12.0667 5.75 13.3125 5.75V3.75C11.475 3.75 9.69628 4.52301 7.99287 5.91263L9.25713 7.46237ZM13.3125 5.75H47.125V3.75H13.3125V5.75ZM47.125 5.75C49.7802 5.75 51.9769 5.38909 53.6375 4.58822C55.3385 3.76788 56.4725 2.48312 56.9076 0.742536L54.9674 0.257464C54.6942 1.35021 54.0052 2.19045 52.7687 2.78678C51.4919 3.40257 49.6365 3.75 47.125 3.75V5.75ZM55.9375 1.5H58.75V-0.5H55.9375V1.5ZM57.9294 1.07149L65.2419 11.5715L66.8831 10.4285L59.5706 -0.0714938L57.9294 1.07149ZM65.2206 10.4603C64.2426 11.986 62.9857 13.3638 61.4403 14.5922L62.6847 16.1578C64.3893 14.8029 65.799 13.264 66.9044 11.5397L65.2206 10.4603ZM61.4429 14.5901C59.9812 15.744 58.6308 16.25 57.375 16.25V18.25C59.2026 18.25 60.9771 17.506 62.6821 16.1599L61.4429 14.5901ZM57.375 16.25H43V18.25H57.375V16.25ZM42 17.25V82.3125H44V17.25H42ZM42 82.3125C42 85.4627 42.3287 87.9076 43.1002 89.4988L44.8998 88.6262C44.3379 87.4674 44 85.4123 44 82.3125H42ZM43.111 89.5205C44.0538 91.3506 45.9116 92.125 48.25 92.125V90.125C46.3384 90.125 45.3628 89.5244 44.889 88.6045L43.111 89.5205ZM47.25 91.125V95.0625H49.25V91.125H47.25ZM47.8609 94.1413L21.6734 105.204L22.4516 107.046L48.6391 95.9837L47.8609 94.1413ZM22.9569 105.678L20.8944 101.553L19.1056 102.447L21.1681 106.572L22.9569 105.678ZM20 103C22.3131 103 24.364 101.629 26.166 99.2994L24.584 98.0756C22.9693 100.163 21.4369 101 20 101V103ZM26.1788 99.2823C27.9101 96.9428 28.6875 93.4326 28.6875 88.9375H26.6875C26.6875 93.2757 25.9233 96.2655 24.5712 98.0927L26.1788 99.2823ZM80.5 17.125L79.7381 16.4774L79.5 16.7574V17.125H80.5ZM80.5 50.9375H79.5V51.9375H80.5V50.9375ZM98.5625 50.9375H99.5625V49.9375H98.5625V50.9375ZM98.5625 54L99.0062 54.8962L99.5625 54.6207V54H98.5625ZM92.125 57.1875V58.1875H92.359L92.5687 58.0837L92.125 57.1875ZM80.5 57.1875V56.1875H79.5V57.1875H80.5ZM83.3125 86.625L82.6576 87.3807L82.658 87.3811L83.3125 86.625ZM92.5 90.75L92.4005 91.745L92.5 90.75ZM103.25 91.25H104.25V90.25H103.25V91.25ZM103.25 94.9375V95.9375H104.25V94.9375H103.25ZM93.8125 98.4375L93.4456 97.5072L93.44 97.5095L93.8125 98.4375ZM72.0625 95.875L71.3709 96.5973L71.3788 96.6048L71.3868 96.6122L72.0625 95.875ZM67.125 89.625L66.2567 90.1212L66.2607 90.1279L67.125 89.625ZM68 13.5625L68.3987 14.4796L68.4079 14.4755L68 13.5625ZM75.3125 10.5625L74.957 9.62779L74.9526 9.6295L75.3125 10.5625ZM84.3125 7.25L84.648 8.1921L84.6594 8.1879L84.3125 7.25ZM97.875 5.5L96.9263 5.81623L96.9306 5.82905L96.9352 5.84174L97.875 5.5ZM99.375 10.5625L98.4048 10.805L98.4061 10.8099L99.375 10.5625ZM100.812 16.125L101.783 15.8824L101.78 15.8716L100.812 16.125ZM103.562 23.875L102.696 24.3735L102.7 24.3815L102.705 24.3895L103.562 23.875ZM109.188 26.375H110.188V25.375H109.188V26.375ZM109.188 28.9375L109.569 29.8618L110.188 29.6064V28.9375H109.188ZM99.625 33.4375L100.062 34.3368L100.069 34.3336L99.625 33.4375ZM87.5625 26.3125L88.5251 26.0416L88.5236 26.0363L87.5625 26.3125ZM82.8125 14.875C81.6004 14.875 80.5731 15.495 79.7381 16.4774L81.2619 17.7726C81.8436 17.0883 82.358 16.875 82.8125 16.875V14.875ZM79.5 17.125V50.9375H81.5V17.125H79.5ZM80.5 51.9375H98.5625V49.9375H80.5V51.9375ZM97.5625 50.9375V54H99.5625V50.9375H97.5625ZM98.1188 53.1038L91.6813 56.2913L92.5687 58.0837L99.0062 54.8962L98.1188 53.1038ZM92.125 56.1875H80.5V58.1875H92.125V56.1875ZM79.5 57.1875V70H81.5V57.1875H79.5ZM79.5 70C79.5 74.7528 79.7349 78.5662 80.2171 81.4168C80.4583 82.8421 80.7658 84.0554 81.1511 85.0372C81.5323 86.0083 82.0175 86.8259 82.6576 87.3807L83.9674 85.8693C83.67 85.6116 83.3349 85.1271 83.0129 84.3066C82.6951 83.4967 82.4167 82.4287 82.1891 81.0832C81.7339 78.3921 81.5 74.7055 81.5 70H79.5ZM82.658 87.3811C85.5889 89.9183 88.841 91.3891 92.4005 91.745L92.5995 89.755C89.4923 89.4442 86.6194 88.1651 83.967 85.8689L82.658 87.3811ZM92.4005 91.745C95.7712 92.0821 99.3881 92.25 103.25 92.25V90.25C99.4453 90.25 95.8955 90.0846 92.5995 89.755L92.4005 91.745ZM102.25 91.25V94.9375H104.25V91.25H102.25ZM103.25 93.9375C103.047 93.9375 102.828 93.9968 102.716 94.0275C102.558 94.0707 102.362 94.1317 102.135 94.207C101.678 94.3583 101.052 94.5818 100.262 94.8749C98.679 95.4619 96.4058 96.3398 93.4456 97.5072L94.1794 99.3678C97.1359 98.2018 99.3939 97.3298 100.957 96.7501C101.74 96.4598 102.34 96.2458 102.764 96.1055C102.977 96.035 103.134 95.9866 103.243 95.9568C103.398 95.9146 103.359 95.9375 103.25 95.9375V93.9375ZM93.44 97.5095C90.4897 98.6937 88.1363 99.5758 86.3729 100.16C85.4908 100.452 84.768 100.666 84.1989 100.806C83.6119 100.95 83.2497 101 83.0625 101V103C83.5003 103 84.0548 102.901 84.6761 102.748C85.3153 102.591 86.0926 102.36 87.0021 102.059C88.822 101.455 91.2186 100.556 94.185 99.3655L93.44 97.5095ZM83.0625 101C81.9837 101 80.4973 100.535 78.5528 99.4409L77.5722 101.184C79.6277 102.34 81.4746 103 83.0625 103V101ZM78.5528 99.4409C76.6303 98.3596 74.6917 96.9285 72.7382 95.1378L71.3868 96.6122C73.4333 98.4881 75.4947 100.015 77.5722 101.184L78.5528 99.4409ZM72.7541 95.1527C70.8618 93.3409 69.2746 91.3311 67.9893 89.1221L66.2607 90.1279C67.6421 92.5022 69.3466 94.6591 71.3709 96.5973L72.7541 95.1527ZM67.9932 89.1289C66.7347 86.9264 66.125 84.7416 66.125 82.5625H64.125C64.125 85.1334 64.8486 87.6569 66.2568 90.1211L67.9932 89.1289ZM66.125 82.5625V15.1875H64.125V82.5625H66.125ZM66.125 15.1875C66.125 15.4662 65.9992 15.6407 65.973 15.6759C65.9362 15.7255 65.9141 15.739 65.9416 15.7163C65.9943 15.6727 66.1147 15.5893 66.3358 15.4643C66.7688 15.2196 67.4494 14.8923 68.3987 14.4796L67.6013 12.6454C66.6339 13.066 65.877 13.4263 65.3517 13.7232C65.0936 13.8691 64.8547 14.02 64.6678 14.1744C64.5755 14.2506 64.4635 14.3539 64.3668 14.4842C64.2808 14.6002 64.125 14.8463 64.125 15.1875H66.125ZM68.4079 14.4755C70.3451 13.61 72.7653 12.6168 75.6724 11.4955L74.9526 9.6295C72.0264 10.7582 69.5716 11.765 67.5921 12.6495L68.4079 14.4755ZM75.6679 11.4972C78.6195 10.3748 81.6129 9.27304 84.648 8.19203L83.977 6.30797C80.9288 7.39363 77.9221 8.50024 74.9571 9.6278L75.6679 11.4972ZM84.6594 8.1879C87.6895 7.06718 90.3383 6.15689 92.6078 5.4554L92.0172 3.5446C89.7034 4.25978 87.0188 5.18282 83.9656 6.3121L84.6594 8.1879ZM92.6078 5.4554C93.7449 5.10393 94.6566 4.84459 95.3486 4.67409C96.0727 4.49569 96.4693 4.4375 96.625 4.4375V2.4375C96.1973 2.4375 95.5835 2.5564 94.8702 2.73216C94.1247 2.91582 93.1717 3.18774 92.0172 3.5446L92.6078 5.4554ZM96.625 4.4375C96.397 4.4375 96.2693 4.33093 96.2584 4.32144C96.2489 4.3132 96.2877 4.34628 96.3636 4.47143C96.5142 4.71998 96.7051 5.15269 96.9263 5.81623L98.8237 5.18377C98.5865 4.47231 98.34 3.87377 98.0739 3.43482C97.9415 3.21622 97.7772 2.99149 97.5697 2.81137C97.3609 2.63001 97.0405 2.4375 96.625 2.4375V4.4375ZM96.9352 5.84174C97.4197 7.17409 97.9102 8.82621 98.4049 10.805L100.345 10.32C99.8398 8.29879 99.3303 6.57591 98.8148 5.15826L96.9352 5.84174ZM98.4061 10.8099C98.9065 12.77 99.3862 14.6262 99.8451 16.3784L101.78 15.8716C101.322 14.1238 100.843 12.2717 100.344 10.3151L98.4061 10.8099ZM99.8424 16.3675C100.724 19.8934 101.667 22.5847 102.696 24.3735L104.429 23.3765C103.541 21.832 102.651 19.3566 101.783 15.8825L99.8424 16.3675ZM102.705 24.3895C103.956 26.4737 106.247 27.375 109.188 27.375V25.375C106.628 25.375 105.169 24.6097 104.42 23.3605L102.705 24.3895ZM108.188 26.375V28.9375H110.188V26.375H108.188ZM108.806 28.0132C106.854 28.8193 103.64 30.333 99.1811 32.5414L100.069 34.3336C104.527 32.1253 107.687 30.6391 109.569 29.8618L108.806 28.0132ZM99.1877 32.5382C96.9189 33.6414 95.1879 34.4653 93.9907 35.0123C93.3907 35.2864 92.9341 35.4868 92.6147 35.617C92.4537 35.6826 92.3398 35.7254 92.266 35.7502C92.2286 35.7627 92.2133 35.7666 92.2142 35.7664C92.2151 35.7662 92.2273 35.7631 92.2481 35.7597C92.2655 35.7569 92.3116 35.75 92.375 35.75V37.75C92.519 37.75 92.6418 37.7209 92.695 37.7077C92.7656 37.6903 92.8365 37.6683 92.902 37.6463C93.0339 37.6021 93.1921 37.5414 93.3697 37.469C93.7274 37.3231 94.2134 37.1094 94.8218 36.8314C96.0413 36.2743 97.7894 35.442 100.062 34.3368L99.1877 32.5382ZM92.375 35.75C92.5315 35.75 92.4542 35.8413 92.1442 35.4634C91.8662 35.1244 91.5291 34.5604 91.1425 33.7219C90.3739 32.055 89.5002 29.5062 88.5251 26.0416L86.5999 26.5834C87.5832 30.0772 88.4907 32.7471 89.3263 34.5593C89.7418 35.4605 90.1625 36.2011 90.598 36.7319C91.0015 37.2239 91.5935 37.75 92.375 37.75V35.75ZM88.5236 26.0363C87.5197 22.5437 86.6078 19.8779 85.7852 18.0702C85.3763 17.1716 84.9672 16.4349 84.5501 15.9072C84.1744 15.4319 83.5963 14.875 82.8125 14.875V16.875C82.6121 16.875 82.6693 16.753 82.9811 17.1474C83.2515 17.4895 83.5821 18.0576 83.9648 18.8986C84.7255 20.5701 85.6053 23.123 86.6014 26.5887L88.5236 26.0363ZM113.312 13.9375H112.312V14.9375H113.312V13.9375ZM113.312 11.25L112.806 10.3875L112.312 10.6774V11.25H113.312ZM126.625 3.4375V2.4375H126.353L126.119 2.57505L126.625 3.4375ZM131.625 3.4375L132.573 3.11913L132.344 2.4375H131.625V3.4375ZM145.562 44.9375L144.615 45.2559L144.971 46.3171L145.985 45.8437L145.562 44.9375ZM148.375 43.625L148.798 44.5312L149.375 44.2619V43.625H148.375ZM147.062 16.1875L146.201 16.6945L146.206 16.7038L146.212 16.713L147.062 16.1875ZM144.562 13.6875L144.85 12.7297L144.793 12.7125L144.734 12.7023L144.562 13.6875ZM143.125 13.4375H142.125V14.2786L142.954 14.4227L143.125 13.4375ZM143.125 10.625L142.614 9.76521L142.125 10.0558V10.625H143.125ZM155.438 3.3125V2.3125H155.163L154.927 2.45271L155.438 3.3125ZM157.938 4.6875L157.333 5.48419L157.34 5.4891L157.346 5.4939L157.938 4.6875ZM161.438 8L160.671 8.64261L160.683 8.65599L160.694 8.66896L161.438 8ZM147.5 50.9375L147.161 49.9966L146.243 50.3272L146.551 51.2533L147.5 50.9375ZM160.062 88.6875L159.114 89.0033L159.117 89.0135L160.062 88.6875ZM162.5 90.9375L162.265 91.9096L162.273 91.9113L162.5 90.9375ZM168.125 91.375H169.125V90.375H168.125V91.375ZM168.125 94.1875L168.612 95.0607L169.125 94.7746V94.1875H168.125ZM154.125 102V103H154.385L154.612 102.873L154.125 102ZM148.5 102L147.551 102.314L147.777 103H148.5V102ZM133.688 57.1875L134.637 56.8737L134.278 55.7864L133.249 56.2889L133.688 57.1875ZM131 58.5L130.561 57.6014L130 57.8755V58.5H131ZM132.25 89.125L131.388 89.632L131.394 89.6413L131.399 89.6505L132.25 89.125ZM134.812 91.5L135.065 90.5324L135.037 90.5251L135.009 90.5194L134.812 91.5ZM136.25 91.875H137.25V91.1024L136.502 90.9074L136.25 91.875ZM136.25 94.6875L136.761 95.5473L137.25 95.2567V94.6875H136.25ZM123.938 102V103H124.212L124.448 102.86L123.938 102ZM117.875 97.3125L117.109 97.9551L117.115 97.9623L117.121 97.9693L117.875 97.3125ZM121.5 55.4375L121.93 56.3404L121.5 55.4375ZM126.625 53.125L126.242 52.2012L126.234 52.2047L126.625 53.125ZM131.625 51.1875L131.963 52.1287L132.882 51.7989L132.574 50.8723L131.625 51.1875ZM120.625 18.0625L121.574 17.7473L121.572 17.7402L120.625 18.0625ZM117.75 14.5625L117.424 15.5079L117.443 15.5145L117.463 15.5203L117.75 14.5625ZM114.312 13.9375V11.25H112.312V13.9375H114.312ZM113.819 12.1125L127.131 4.29995L126.119 2.57505L112.806 10.3875L113.819 12.1125ZM126.625 4.4375H131.625V2.4375H126.625V4.4375ZM130.677 3.75587L144.615 45.2559L146.51 44.6191L132.573 3.11913L130.677 3.75587ZM145.985 45.8437L148.798 44.5312L147.952 42.7188L145.14 44.0313L145.985 45.8437ZM149.375 43.625V22H147.375V43.625H149.375ZM149.375 22C149.375 19.4389 148.922 17.2947 147.913 15.662L146.212 16.713C146.953 17.9136 147.375 19.6444 147.375 22H149.375ZM147.924 15.6805C147.064 14.2171 146.064 13.0939 144.85 12.7297L144.275 14.6453C144.728 14.7811 145.395 15.3246 146.201 16.6945L147.924 15.6805ZM144.734 12.7023L143.296 12.4523L142.954 14.4227L144.391 14.6727L144.734 12.7023ZM144.125 13.4375V10.625H142.125V13.4375H144.125ZM143.636 11.4848L155.948 4.17229L154.927 2.45271L142.614 9.76521L143.636 11.4848ZM155.438 4.3125C155.397 4.3125 155.529 4.31482 155.924 4.53247C156.281 4.72857 156.748 5.04021 157.333 5.48419L158.542 3.89081C157.919 3.41813 157.365 3.04226 156.888 2.78003C156.451 2.53935 155.937 2.3125 155.438 2.3125V4.3125ZM157.346 5.4939C158.526 6.35924 159.635 7.40703 160.671 8.64261L162.204 7.35739C161.073 6.00963 159.849 4.84909 158.529 3.8811L157.346 5.4939ZM160.694 8.66896C161.726 9.81545 162.125 10.7953 162.125 11.625H164.125C164.125 10.1214 163.399 8.68455 162.181 7.33104L160.694 8.66896ZM162.125 11.625V43.125H164.125V11.625H162.125ZM162.125 43.125C162.125 43.0088 162.174 43.0011 162.079 43.1275C161.99 43.2474 161.821 43.4209 161.533 43.6451C160.96 44.0926 160.052 44.6373 158.772 45.2774C156.221 46.5527 152.359 48.1254 147.161 49.9966L147.839 51.8784C153.057 49.9996 157.008 48.3953 159.666 47.0663C160.99 46.4044 162.035 45.7902 162.763 45.2221C163.127 44.9385 163.446 44.64 163.682 44.3237C163.914 44.0139 164.125 43.6058 164.125 43.125H162.125ZM146.551 51.2533L159.114 89.0033L161.011 88.3717L148.449 50.6217L146.551 51.2533ZM159.117 89.0135C159.641 90.5333 160.714 91.5352 162.265 91.9096L162.735 89.9654C161.869 89.7565 161.317 89.2584 161.008 88.3615L159.117 89.0135ZM162.273 91.9113C163.638 92.2299 165.606 92.375 168.125 92.375V90.375C165.644 90.375 163.862 90.2285 162.727 89.9637L162.273 91.9113ZM167.125 91.375V94.1875H169.125V91.375H167.125ZM167.638 93.3143L153.638 101.127L154.612 102.873L168.612 95.0607L167.638 93.3143ZM154.125 101H148.5V103H154.125V101ZM149.449 101.686L134.637 56.8737L132.738 57.5013L147.551 102.314L149.449 101.686ZM133.249 56.2889L130.561 57.6014L131.439 59.3986L134.126 58.0861L133.249 56.2889ZM130 58.5V83.3125H132V58.5H130ZM130 83.3125C130 85.8671 130.43 88.0037 131.388 89.632L133.112 88.618C132.403 87.4129 132 85.6746 132 83.3125H130ZM131.399 89.6505C132.296 91.1026 133.344 92.2262 134.616 92.4806L135.009 90.5194C134.614 90.4405 133.954 89.9807 133.101 88.5995L131.399 89.6505ZM134.56 92.4676L135.998 92.8426L136.502 90.9074L135.065 90.5324L134.56 92.4676ZM135.25 91.875V94.6875H137.25V91.875H135.25ZM135.739 93.8277L123.427 101.14L124.448 102.86L136.761 95.5473L135.739 93.8277ZM123.938 101C124.008 101 123.895 101.007 123.482 100.78C123.119 100.581 122.638 100.265 122.029 99.8186L120.846 101.431C121.487 101.902 122.047 102.274 122.518 102.532C122.938 102.764 123.45 103 123.938 103V101ZM122.029 99.8186C120.844 98.9499 119.711 97.8974 118.629 96.6557L117.121 97.9693C118.289 99.3109 119.531 100.467 120.846 101.431L122.029 99.8186ZM118.641 96.6699C117.636 95.4717 117.25 94.485 117.25 93.6875H115.25C115.25 95.14 115.947 96.5699 117.109 97.9551L118.641 96.6699ZM117.25 93.6875V59H115.25V93.6875H117.25ZM117.25 59C117.25 59.2127 117.139 59.2457 117.313 59.0572C117.458 58.9006 117.715 58.6831 118.124 58.4056C118.936 57.8546 120.195 57.1667 121.93 56.3404L121.07 54.5346C119.305 55.375 117.939 56.1142 117.001 56.7506C116.535 57.0669 116.136 57.3833 115.843 57.7006C115.58 57.9861 115.25 58.4331 115.25 59H117.25ZM121.93 56.3404C123.668 55.5127 125.363 54.7477 127.016 54.0453L126.234 52.2047C124.553 52.9189 122.832 53.6956 121.07 54.5346L121.93 56.3404ZM127.008 54.0487C128.702 53.3462 130.354 52.7062 131.963 52.1287L131.287 50.2463C129.646 50.8355 127.964 51.4872 126.242 52.2013L127.008 54.0487ZM132.574 50.8723L121.574 17.7473L119.676 18.3777L130.676 51.5027L132.574 50.8723ZM121.572 17.7402C120.863 15.6589 119.744 14.1168 118.037 13.6047L117.463 15.5203C118.256 15.7582 119.054 16.5494 119.678 18.3848L121.572 17.7402ZM118.076 13.6171C116.732 13.1537 115.135 12.9375 113.312 12.9375V14.9375C114.99 14.9375 116.351 15.138 117.424 15.5079L118.076 13.6171ZM184.562 21.125L183.861 20.4123L183.562 20.7061V21.125H184.562ZM188.5 17.25L189.201 17.9627L190.942 16.25H188.5V17.25ZM171.625 21.5V22.5H172.406L172.595 21.7425L171.625 21.5ZM168.812 21.5L167.992 22.0715L168.29 22.5H168.812V21.5ZM161.5 11L160.658 10.4603L160.297 11.023L160.679 11.5715L161.5 11ZM165.5 6.6875L166.11 7.48012L166.121 7.4714L166.132 7.46237L165.5 6.6875ZM212.812 0.5V-0.5H212.032L211.842 0.257464L212.812 0.5ZM215.625 0.5L216.446 -0.0714938L216.147 -0.5H215.625V0.5ZM222.938 11L223.779 11.5397L224.14 10.977L223.758 10.4285L222.938 11ZM218.938 15.375L219.557 16.1599L219.56 16.1578L218.938 15.375ZM199.875 17.25V16.25H198.875V17.25H199.875ZM200.875 89.0625L199.975 89.4988L199.98 89.5097L199.986 89.5205L200.875 89.0625ZM205.125 91.125H206.125V90.125H205.125V91.125ZM205.125 95.0625L205.514 95.9837L206.125 95.7256V95.0625H205.125ZM178.938 106.125L178.043 106.572L178.463 107.411L179.327 107.046L178.938 106.125ZM176.875 102V101H175.257L175.981 102.447L176.875 102ZM182.25 98.6875L183.041 99.2994L183.047 99.2909L183.054 99.2823L182.25 98.6875ZM185.562 88.9375V21.125H183.562V88.9375H185.562ZM185.264 21.8377L189.201 17.9627L187.799 16.5373L183.861 20.4123L185.264 21.8377ZM188.5 16.25H180.438V18.25H188.5V16.25ZM180.438 16.25C177.782 16.25 175.586 16.6109 173.925 17.4118C172.224 18.2321 171.09 19.5169 170.655 21.2575L172.595 21.7425C172.868 20.6498 173.557 19.8095 174.794 19.2132C176.071 18.5974 177.926 18.25 180.438 18.25V16.25ZM171.625 20.5H168.812V22.5H171.625V20.5ZM169.633 20.9285L162.321 10.4285L160.679 11.5715L167.992 22.0715L169.633 20.9285ZM162.342 11.5397C163.318 10.0176 164.57 8.66422 166.11 7.48012L164.89 5.89488C163.18 7.21078 161.766 8.73237 160.658 10.4603L162.342 11.5397ZM166.132 7.46237C167.595 6.26866 168.942 5.75 170.188 5.75V3.75C168.35 3.75 166.571 4.52301 164.868 5.91263L166.132 7.46237ZM170.188 5.75H204V3.75H170.188V5.75ZM204 5.75C206.655 5.75 208.852 5.38909 210.513 4.58822C212.214 3.76788 213.347 2.48312 213.783 0.742536L211.842 0.257464C211.569 1.35021 210.88 2.19045 209.644 2.78678C208.367 3.40257 206.511 3.75 204 3.75V5.75ZM212.812 1.5H215.625V-0.5H212.812V1.5ZM214.804 1.07149L222.117 11.5715L223.758 10.4285L216.446 -0.0714938L214.804 1.07149ZM222.096 10.4603C221.118 11.986 219.861 13.3638 218.315 14.5922L219.56 16.1578C221.264 14.8029 222.674 13.264 223.779 11.5397L222.096 10.4603ZM218.318 14.5901C216.856 15.744 215.506 16.25 214.25 16.25V18.25C216.078 18.25 217.852 17.506 219.557 16.1599L218.318 14.5901ZM214.25 16.25H199.875V18.25H214.25V16.25ZM198.875 17.25V82.3125H200.875V17.25H198.875ZM198.875 82.3125C198.875 85.4627 199.204 87.9076 199.975 89.4988L201.775 88.6262C201.213 87.4674 200.875 85.4123 200.875 82.3125H198.875ZM199.986 89.5205C200.929 91.3506 202.787 92.125 205.125 92.125V90.125C203.213 90.125 202.238 89.5244 201.764 88.6045L199.986 89.5205ZM204.125 91.125V95.0625H206.125V91.125H204.125ZM204.736 94.1413L178.548 105.204L179.327 107.046L205.514 95.9837L204.736 94.1413ZM179.832 105.678L177.769 101.553L175.981 102.447L178.043 106.572L179.832 105.678ZM176.875 103C179.188 103 181.239 101.629 183.041 99.2994L181.459 98.0756C179.844 100.163 178.312 101 176.875 101V103ZM183.054 99.2823C184.785 96.9428 185.562 93.4326 185.562 88.9375H183.562C183.562 93.2757 182.798 96.2655 181.446 98.0927L183.054 99.2823Z" fill="black" mask="url(#path-1-outside-1_2_6)"/>
</g>
<defs>
<filter id="filter0_d_2_6" x="0.625" y="0.5" width="226.312" height="113.625" filterUnits="userSpaceOnUse" color-interpolation-filters="sRGB">
<feFlood flood-opacity="0" result="BackgroundImageFix"/>
<feColorMatrix in="SourceAlpha" type="matrix" values="0 0 0 0 0 0 0 0 0 0 0 0 0 0 0 0 0 0 127 0" result="hardAlpha"/>
<feOffset dy="4"/>
<feGaussianBlur stdDeviation="2"/>
<feComposite in2="hardAlpha" operator="out"/>
<feColorMatrix type="matrix" values="0 0 0 0 0 0 0 0 0 0 0 0 0 0 0 0 0 0 0.25 0"/>
<feBlend mode="normal" in2="BackgroundImageFix" result="effect1_dropShadow_2_6"/>
<feBlend mode="normal" in="SourceGraphic" in2="effect1_dropShadow_2_6" result="shape"/>
</filter>
</defs>
</svg>
